<svg xmlns="http://www.w3.org/2000/svg" width="24" height="24" viewBox="0 0 24 24">
  <path d="M0 0h24v24H0z" fill="none"/>
  <path fill="#010101" d="M12,22C6.477,22,2,17.523,2,12C2,6.477,6.477,2,12,2c5.523,0,10,4.477,10,10C22,17.523,17.523,22,12,22z M5.5,8.5h13
    c0.276,0,0.5-0.224,0.5-0.5s-0.224-0.5-0.5-0.5h-13c-0.276,0-0.5,0.224-0.5,0.5S5.224,8.5,5.5,8.5z M5.5,11.5h13
    c0.276,0,0.5-0.224,0.5-0.5s-0.224-0.5-0.5-0.5h-13c-0.276,0-0.5,0.224-0.5,0.5S5.224,11.5,5.5,11.5z M5.5,14.5h9
    c0.276,0,0.5-0.224,0.5-0.5s-0.224-0.5-0.5-0.5h-9c-0.276,0-0.5,0.224-0.5,0.5S5.224,14.5,5.5,14.5z"/>
</svg>
